<svg width="33" height="48" viewBox="0 0 33 48" fill="none" xmlns="http://www.w3.org/2000/svg">
<path d="M17.5933 37.9394C17.2069 37.8716 16.7931 37.8716 16.4067 37.9394L12.1115 38.6929C11.6185 38.7794 11.2038 38.9702 10.9541 39.2254L9.53401 40.6775C9.20166 41.0173 9.20166 41.4297 9.53401 41.7695L10.9541 43.2216C11.2038 43.4769 11.6185 43.6677 12.1115 43.7542L16.4067 44.5077C16.7931 44.5755 17.2069 44.5755 17.5933 44.5077L21.8885 43.7542C22.3815 43.6677 22.7962 43.4769 23.0459 43.2216L24.466 41.7695C24.7983 41.4297 24.7983 41.0173 24.466 40.6775L23.0459 39.2254C22.7962 38.9702 22.3815 38.7794 21.8885 38.6929L17.5933 37.9394Z" fill="#010101"/>
<path d="M16.4067 28.3394C16.7931 28.2716 17.2069 28.2716 17.5933 28.3394L21.8885 29.0929C22.3815 29.1794 22.7962 29.3702 23.0459 29.6254L24.466 31.0775C24.7983 31.4173 24.7983 31.8297 24.466 32.1695L23.0459 33.6216C22.7962 33.8769 22.3815 34.0677 21.8885 34.1542L17.5933 34.9077C17.2069 34.9755 16.7931 34.9755 16.4067 34.9077L12.1115 34.1542C11.6185 34.0677 11.2038 33.8769 10.9541 33.6216L9.53401 32.1695C9.20166 31.8297 9.20166 31.4173 9.53401 31.0775L10.9541 29.6254C11.2038 29.3702 11.6185 29.1794 12.1115 29.0929L16.4067 28.3394Z" fill="#010101"/>
<path d="M17.5933 18.7394C17.2069 18.6716 16.7931 18.6716 16.4067 18.7394L12.1115 19.4929C11.6185 19.5794 11.2038 19.7702 10.9541 20.0254L9.53401 21.4775C9.20166 21.8173 9.20166 22.2297 9.53401 22.5695L10.9541 24.0216C11.2038 24.2769 11.6185 24.4677 12.1115 24.5542L16.4067 25.3077C16.7931 25.3755 17.2069 25.3755 17.5933 25.3077L21.8885 24.5542C22.3815 24.4677 22.7962 24.2769 23.0459 24.0216L24.466 22.5695C24.7983 22.2297 24.7983 21.8173 24.466 21.4775L23.0459 20.0254C22.7962 19.7702 22.3815 19.5794 21.8885 19.4929L17.5933 18.7394Z" fill="#010101"/>
<path fill-rule="evenodd" clip-rule="evenodd" d="M27.2625 2.09977L33 48H0L6.21744 2.0866C6.37686 0.909324 8.11496 0 10.2058 0H23.2724C25.3722 0 27.1146 0.916923 27.2625 2.09977ZM10.2058 0.564706H23.2724C24.8473 0.564706 26.1541 1.2524 26.265 2.13954L31.9269 47.4353H1.07939L7.21453 2.12965C7.3341 1.2467 8.63767 0.564706 10.2058 0.564706Z" fill="#010101"/>
</svg>
