<svg width="33" height="48" viewBox="0 0 33 48" fill="none" xmlns="http://www.w3.org/2000/svg">
<path d="M5 26.5252C5 25.805 5.73828 25.321 6.39873 25.6081L16.1013 29.8266C16.3556 29.9372 16.6444 29.9372 16.8987 29.8266L26.6013 25.6081C27.2617 25.321 28 25.805 28 26.5252V30.3444C28 30.7425 27.7638 31.1027 27.3987 31.2614L16.8987 35.8266C16.6444 35.9372 16.3556 35.9372 16.1013 35.8266L5.60127 31.2614C5.23616 31.1027 5 30.7425 5 30.3444V26.5252Z" fill="black"/>
<path d="M6.39873 33.6081C5.73828 33.321 5 33.805 5 34.5252V38.3444C5 38.7425 5.23616 39.1027 5.60127 39.2614L16.1013 43.8266C16.3556 43.9372 16.6444 43.9372 16.8987 43.8266L27.3987 39.2614C27.7638 39.1027 28 38.7425 28 38.3444V34.5252C28 33.805 27.2617 33.321 26.6013 33.6081L16.8987 37.8266C16.6444 37.9372 16.3556 37.9372 16.1013 37.8266L6.39873 33.6081Z" fill="black"/>
<path fill-rule="evenodd" clip-rule="evenodd" d="M27.2625 2.09977L33 48H0L6.21744 2.0866C6.37686 0.909325 8.11496 0 10.2058 0H23.2724C25.3722 0 27.1146 0.916924 27.2625 2.09977ZM10.2058 0.564707H23.2724C24.8473 0.564707 26.1541 1.2524 26.265 2.13954L31.9269 47.4353H1.07939L7.21453 2.12965C7.3341 1.2467 8.63767 0.564707 10.2058 0.564707Z" fill="black"/>
</svg>
