<svg width="75" height="138" viewBox="0 0 75 138" fill="none" xmlns="http://www.w3.org/2000/svg">
<path d="M20 30.9444V31.2727H13V32.4091H30.1111V31.2727H23.8889V30.9444C23.8889 29.8706 23.0183 29 21.9444 29C20.8706 29 20 29.8706 20 30.9444Z" fill="#030303"/>
<path d="M51.8889 31.2727V30.9444C51.8889 29.8706 52.7594 29 53.8333 29C54.9072 29 55.7778 29.8706 55.7778 30.9444V31.2727H62V32.4091H44.8889V31.2727H51.8889Z" fill="#030303"/>
<path fill-rule="evenodd" clip-rule="evenodd" d="M23.8889 37.5311V34.6818H20V41.8283C20 42.9022 20.8706 43.7727 21.9444 43.7727C23.0183 43.7727 23.8889 42.9022 23.8889 41.8283V40.3636H30.8889V42.1818C30.8889 44.9432 33.1275 47.1818 35.8889 47.1818H31.6667V49C31.6667 51.7614 33.9052 54 36.6667 54H39.1111C41.8725 54 44.1111 51.7614 44.1111 49V47.1818H39.8889C42.6503 47.1818 44.8889 44.9432 44.8889 42.1818V40.3636H51.8889V41.8283C51.8889 42.9022 52.7594 43.7727 53.8333 43.7727C54.9072 43.7727 55.7778 42.9022 55.7778 41.8283V34.6818H51.8889V37.2954C49.6889 36.6775 46.6909 36.2124 43.2512 35.9811C42.3632 35.1738 41.1835 34.6818 39.8889 34.6818H35.8889C34.5614 34.6818 33.3547 35.1992 32.4594 36.0433C28.9584 36.3237 25.9676 36.8501 23.8889 37.5311ZM39.4444 50.5909C39.4444 51.8461 38.5739 52.8636 37.5 52.8636C36.4261 52.8636 35.5556 51.8461 35.5556 50.5909C35.5556 49.3357 36.4261 48.3182 37.5 48.3182C38.5739 48.3182 39.4444 49.3357 39.4444 50.5909Z" fill="#030303"/>
<path fill-rule="evenodd" clip-rule="evenodd" d="M62.9299 72.0004C70.3518 64.418 75 53.5597 75 41.5C75 40.4259 74.9631 39.3614 74.8907 38.3078L75 38H74.8685C73.2626 16.7181 57.1455 0 37.5 0C17.8545 0 1.73736 16.7181 0.13148 38H0L0.109775 38.3008C0.0370359 39.3566 0 40.4235 0 41.5C0 53.8475 4.87273 64.9356 12.6062 72.5376L36.5 138H39.5L62.9299 72.0004ZM68 41.5C68 60.5538 54.5685 76 38 76C21.4315 76 8 60.5538 8 41.5C8 22.4462 21.4315 7 38 7C54.5685 7 68 22.4462 68 41.5Z" fill="#030303"/>
</svg>
