<svg width="63" height="22" viewBox="0 0 63 22" fill="none" xmlns="http://www.w3.org/2000/svg">
<path fill-rule="evenodd" clip-rule="evenodd" d="M9 2C9 0.895432 9.89543 0 11 0H12C13.1046 0 14 0.895432 14 2H22V3H0V2H9ZM52 0C50.8954 0 50 0.895432 50 2H41V3H63V2H55C55 0.895432 54.1046 0 53 0H52ZM9 5H14V7.50736C16.616 6.92077 20.3554 6.46457 24.7339 6.21408C25.61 5.45754 26.7516 5 28 5H36C37.2171 5 38.3327 5.4349 39.1998 6.15779C43.4943 6.36588 47.2368 6.76873 50 7.29992V5H55V9.5V10.5C55 11.8807 53.8807 13 52.5 13C51.1193 13 50 11.8807 50 10.5V10H41V11C41 13.7614 38.7614 16 36 16H40V17C40 19.7614 37.7614 22 35 22H29C26.2386 22 24 19.7614 24 17V16H28C25.2386 16 23 13.7614 23 11V10H14V10.5C14 11.8807 12.8807 13 11.5 13C10.1193 13 9 11.8807 9 10.5V5ZM31.5 21C32.8807 21 34 20.1046 34 19C34 17.8954 32.8807 17 31.5 17C30.1193 17 29 17.8954 29 19C29 20.1046 30.1193 21 31.5 21Z" fill="#030303"/>
</svg>
