<svg width="75" height="138" viewBox="0 0 75 138" fill="none" xmlns="http://www.w3.org/2000/svg">
<path fill-rule="evenodd" clip-rule="evenodd" d="M62 32H64L61.0833 37.8333H62V39L60.5882 39.2059L62.5 43.6667H61L56.8108 39.7568L42.0656 41.9071L39 44.8333L37.8149 46.3775C36.8686 47.6105 35.4027 48.3333 33.8484 48.3333H29.5182L28.7653 51.8333H31V52.8333H17V51.8333H20.0518L22.2241 48.3333H19.8224C19.5311 48.3333 19.2321 48.3389 18.9292 48.3446C16.9936 48.3808 14.9004 48.42 13.6731 47.0208C12.9056 46.1458 13.0041 44.8333 13.0041 44.8333H13C14.6141 43.7817 16.4153 43.0697 18.2941 42.7298C19.0847 39.9943 21.3736 38.0793 23.9883 38.27L24.1408 38.2797C24.3955 37.1568 25.4582 36.3409 26.6477 36.4481L28.0092 36.5708C27.4218 36.3336 27 35.6826 27 34.9167V34.3333H13V33.1667H46V34.3333H30V34.9167C30 35.777 29.4678 36.4924 28.7666 36.6391L42.0133 37.8333H57L62 32ZM27.7451 51.8333H21.2162L23.3886 48.3333H28.498L27.7451 51.8333Z" fill="black"/>
<path fill-rule="evenodd" clip-rule="evenodd" d="M62.9299 72.0004C70.3518 64.418 75 53.5597 75 41.5C75 40.4259 74.9631 39.3614 74.8907 38.3078L75 38H74.8685C73.2626 16.7181 57.1455 0 37.5 0C17.8545 0 1.73736 16.7181 0.13148 38H0L0.109775 38.3008C0.0370359 39.3566 0 40.4235 0 41.5C0 53.8475 4.87273 64.9356 12.6062 72.5376L36.5 138H39.5L62.9299 72.0004ZM68 41.5C68 60.5538 54.5685 76 38 76C21.4315 76 8 60.5538 8 41.5C8 22.4462 21.4315 7 38 7C54.5685 7 68 22.4462 68 41.5Z" fill="black"/>
</svg>
