<svg width="51" height="21" viewBox="0 0 51 21" fill="none" xmlns="http://www.w3.org/2000/svg">
<path fill-rule="evenodd" clip-rule="evenodd" d="M51 0H49L44 5.83333H29.0133L15.7666 4.63911C16.4678 4.49237 17 3.77702 17 2.91667V2.33333H33V1.16667H2.38391e-09V2.33333H14V2.91667C14 3.68262 14.4218 4.33364 15.0092 4.57083L13.6477 4.44809C12.4582 4.34086 11.3955 5.15681 11.1408 6.27975L10.9883 6.26998C8.37363 6.07933 6.08471 7.99433 5.29411 10.7298C3.41528 11.0697 1.61412 11.7817 2.38391e-09 12.8333H0.00410512C0.00410512 12.8333 -0.0943553 14.1458 0.673129 15.0208C1.90036 16.42 3.99363 16.3808 5.92918 16.3446C6.23208 16.3389 6.53111 16.3333 6.82236 16.3333H9.22412L7.0518 19.8333H4V20.8333H18V19.8333H15.7653L16.5182 16.3333H20.8484C22.4027 16.3333 23.8686 15.6105 24.8149 14.3775L26 12.8333L29.0656 9.9071L43.8108 7.75676L48 11.6667H49.5L47.5882 7.20588L49 7V5.83333H48.0833L51 0ZM8.21624 19.8333H14.7451L15.498 16.3333H10.3886L8.21624 19.8333Z" fill="black"/>
</svg>
