<svg width="57" height="27" viewBox="0 0 57 27" fill="none" xmlns="http://www.w3.org/2000/svg">
<path d="M32.1643 0C31.4897 0 30.9429 0.518071 30.9429 1.15714C30.9429 1.79621 31.4897 2.31429 32.1643 2.31429H35.0143V4.62857H19.5429L0.678571 11.3304H0V19.2857H4.65914C4.28229 19.9871 4.07143 20.7718 4.07143 21.6C4.07143 24.5823 6.80569 27 10.1786 27C13.5515 27 16.2857 24.5823 16.2857 21.6C16.2857 20.7718 16.0749 19.9871 15.698 19.2857H17.7904C17.8583 19.4087 17.9182 19.5375 17.9668 19.6714C18.3871 20.8286 17.9668 21.6 17.9668 21.6H40.2415C40.2415 21.6 40.2415 20.0571 40.6617 19.2857H42.9306C42.5537 19.9871 42.3429 20.7718 42.3429 21.6C42.3429 24.5823 45.0771 27 48.45 27C51.8229 27 54.5571 24.5823 54.5571 21.6C54.5571 20.7718 54.3463 19.9871 53.9694 19.2857H55.7333L57 14.1147C57 14.1147 51.5111 12.5237 43.4889 11.3304C43.0807 11.2696 42.6746 11.2151 42.2716 11.1663L41.1214 4.62857H36.6429V2.31429H39.4929C40.1674 2.31429 40.7143 1.79621 40.7143 1.15714V1.54286H52.1143V0.771429H40.7143V1.15714C40.7143 0.518071 40.1674 0 39.4929 0H32.1643Z" fill="black"/>
</svg>
