<svg width="75" height="138" viewBox="0 0 75 138" fill="none" xmlns="http://www.w3.org/2000/svg">
<path d="M39.5143 28.1571C39.5143 27.5181 39.9652 27 40.5214 27H46.5643C47.1205 27 47.5714 27.5181 47.5714 28.1571C47.5714 28.7962 47.1205 29.3143 46.5643 29.3143H44.2143V31.6286H47.9071L48.8555 38.1663C49.1878 38.2151 49.5226 38.2696 49.8593 38.3304C56.4741 39.5237 61 41.1147 61 41.1147L59.9556 46.2857H58.5011C58.8118 46.9871 58.9857 47.7718 58.9857 48.6C58.9857 51.5823 56.7311 54 53.95 54C51.1688 54 48.9143 51.5823 48.9143 48.6C48.9143 47.7718 49.0882 46.9871 49.3989 46.2857H47.5281C47.1816 47.0571 47.1816 48.6 47.1816 48.6H28.8147C28.8147 48.6 29.1613 47.8286 28.8147 46.6714C28.7746 46.5375 28.7252 46.4087 28.6692 46.2857H26.944C27.2547 46.9871 27.4286 47.7718 27.4286 48.6C27.4286 51.5823 25.174 54 22.3929 54C19.6117 54 17.3571 51.5823 17.3571 48.6C17.3571 47.7718 17.531 46.9871 17.8417 46.2857H14V38.3304H14.5595L30.1143 31.6286H42.8714V29.3143H40.5214C39.9652 29.3143 39.5143 28.7962 39.5143 28.1571Z" fill="black"/>
<path d="M47.5714 28.1571V27.7714H56.9714V28.5429H47.5714V28.1571Z" fill="black"/>
<path fill-rule="evenodd" clip-rule="evenodd" d="M62.9299 72.0004C70.3518 64.418 75 53.5597 75 41.5C75 40.4259 74.9631 39.3614 74.8907 38.3078L75 38H74.8685C73.2626 16.7181 57.1455 0 37.5 0C17.8545 0 1.73736 16.7181 0.13148 38H0L0.109775 38.3008C0.0370359 39.3566 0 40.4235 0 41.5C0 53.8475 4.87273 64.9356 12.6062 72.5376L36.5 138H39.5L62.9299 72.0004ZM68 41.5C68 60.5538 54.5685 76 38 76C21.4315 76 8 60.5538 8 41.5C8 22.4462 21.4315 7 38 7C54.5685 7 68 22.4462 68 41.5Z" fill="black"/>
</svg>
