<svg width="75" height="138" viewBox="0 0 75 138" fill="none" xmlns="http://www.w3.org/2000/svg">
<path fill-rule="evenodd" clip-rule="evenodd" d="M36.0756 12.6201C36.237 11.7933 37.0489 11.7933 37.2102 12.6201L39.2041 22.8355C39.4456 23.6576 39.6317 24.5991 39.7478 25.6209L40.5576 29.7696C40.6153 30.0654 40.4857 30.8837 40.2926 31.5672H42V42.7134L56.2857 55.1141V49.4328H57V62.194L37.7225 57.087L43.4286 65.597V69L36.5833 65.597L29.1429 69V65.597L35.1979 57.2889L35.1846 57.0755L17 62.194V49.4328H17.7143V55.1141L31.2857 43.3334V31.5672H32.9902C32.7985 30.8837 32.6705 30.0654 32.7282 29.7696L33.538 25.6209C33.6541 24.5991 33.8402 23.6576 34.0817 22.8355L36.0756 12.6201ZM33.5647 31.1901L33.5883 31.5672H33.5562L33.5647 31.1901ZM38.4971 31.5672H38.4286V31.6982L36.7826 34.7897L34.7417 31.2758C34.6376 30.5802 34.58 29.8156 34.58 29.0131C34.58 25.7985 35.5036 23.1926 36.6429 23.1926C37.7822 23.1926 38.7058 25.7985 38.7058 29.0131C38.7058 29.9293 38.6308 30.7961 38.4971 31.5672ZM39.6375 31.5672H39.7274L39.7135 30.8511C39.7011 30.9481 39.688 31.0443 39.6743 31.1396L39.6375 31.5672Z" fill="black"/>
<path fill-rule="evenodd" clip-rule="evenodd" d="M62.9299 72.0004C70.3518 64.418 75 53.5597 75 41.5C75 40.4259 74.9631 39.3614 74.8907 38.3078L75 38H74.8685C73.2626 16.7181 57.1455 0 37.5 0C17.8545 0 1.73736 16.7181 0.13148 38H0L0.109775 38.3008C0.0370359 39.3566 0 40.4235 0 41.5C0 53.8475 4.87273 64.9356 12.6062 72.5376L36.5 138H39.5L62.9299 72.0004ZM68 41.5C68 60.5538 54.5685 76 38 76C21.4315 76 8 60.5538 8 41.5C8 22.4462 21.4315 7 38 7C54.5685 7 68 22.4462 68 41.5Z" fill="black"/>
</svg>
