<svg width="56" height="67" viewBox="0 0 56 67" fill="none" xmlns="http://www.w3.org/2000/svg">
<path fill-rule="evenodd" clip-rule="evenodd" d="M28.2943 0.728855C28.0684 -0.24295 26.9318 -0.242952 26.7059 0.728853L23.9144 12.7364C23.5763 13.7028 23.3157 14.8095 23.1532 16.0105L22.0195 20.8871C21.9387 21.2348 22.1179 22.1966 22.3863 23H20V36.8305L1 50.678V44H0V59L25.4584 52.9835L25.4771 53.2344L17 63V67L27.4167 63L37 67V63L29.0115 52.997L56 59V44H55V50.678L35 36.1017V23H32.6096C32.88 22.1966 33.0615 21.2348 32.9806 20.8871L31.847 16.0106C31.6844 14.8095 31.4238 13.7028 31.0858 12.7364L28.2943 0.728855ZM23.2236 23L23.1906 22.5568L23.1787 23H23.2236ZM30 23H30.096C30.2831 22.0936 30.3881 21.0748 30.3881 19.9978C30.3881 16.2193 29.0951 13.1562 27.5001 13.1562C25.9051 13.1562 24.612 16.2193 24.612 19.9978C24.612 20.9412 24.6926 21.8399 24.8384 22.6575L27.6957 26.7879L30 23.154V23ZM31.8184 23H31.6925L31.744 22.4975C31.7632 22.3854 31.7815 22.2723 31.7989 22.1584L31.8184 23Z" fill="black"/>
</svg>
