<svg width="60" height="47" viewBox="0 0 60 47" fill="none" xmlns="http://www.w3.org/2000/svg">
<path fill-rule="evenodd" clip-rule="evenodd" d="M33.3333 7.44167C33.3333 9.66733 32.841 11.6648 32.0606 13.0285L31.87 20.4643L60 21.9333V23.5L31.7544 24.975L31.3466 40.8822L44.1667 42.3V43.8667H31.2701L31.25 44.65H38.3333V45.4333H31.9697C31.9697 46.2986 31.2683 47 30.403 47H29.5591C28.6938 47 27.9924 46.2986 27.9924 45.4333H20.8333V44.65H28.3333L28.3032 43.8667H15.8333V42.3L28.1904 40.9335L27.5755 24.9401L0 23.5V21.9333L27.4048 20.5022L27.1182 13.0497C26.3308 11.6855 25.8333 9.67889 25.8333 7.44167C25.8333 3.33175 27.5123 0 29.5833 0C31.6544 0 33.3333 3.33175 33.3333 7.44167Z" fill="#040404"/>
</svg>
