<svg width="75" height="138" viewBox="0 0 75 138" fill="none" xmlns="http://www.w3.org/2000/svg">
<path d="M39.8545 31.0285C40.5569 29.6648 41 27.6673 41 25.4417C41 21.3317 39.489 18 37.625 18C35.761 18 34.25 21.3317 34.25 25.4417C34.25 27.6789 34.6977 29.6855 35.4064 31.0497L35.6643 38.5022L11 39.9333V41.5L35.8179 42.94L36.3714 58.9335L25.25 60.3V61.8667H36.4729L36.5 62.65H39.125L39.1431 61.8667H50.75V60.3L39.2119 58.8823L39.5789 42.9751L65 41.5V39.9333L39.683 38.4643L39.8545 31.0285Z" fill="#040404"/>
<path d="M38.2061 65C39.0713 65 39.7727 64.2986 39.7727 63.4333H45.5V62.65H29.75V63.4333H36.1932C36.1932 64.2986 36.8946 65 37.7598 65H38.2061Z" fill="#040404"/>
<path fill-rule="evenodd" clip-rule="evenodd" d="M62.9299 72.0004C70.3518 64.418 75 53.5597 75 41.5C75 40.4259 74.9631 39.3614 74.8907 38.3078L75 38H74.8685C73.2626 16.7181 57.1455 0 37.5 0C17.8545 0 1.73736 16.7181 0.13148 38H0L0.109775 38.3008C0.0370359 39.3566 0 40.4235 0 41.5C0 53.8475 4.87273 64.9356 12.6062 72.5376L36.5 138H39.5L62.9299 72.0004ZM68 41.5C68 60.5538 54.5685 76 38 76C21.4315 76 8 60.5538 8 41.5C8 22.4462 21.4315 7 38 7C54.5685 7 68 22.4462 68 41.5Z" fill="#040404"/>
</svg>
