<svg width="39" height="58" viewBox="0 0 39 58" fill="none" xmlns="http://www.w3.org/2000/svg">
<path d="M15.6562 43.5C15.5625 42.3438 15.5156 41.2656 15.5156 40.2656C15.5156 37.8281 15.7344 35.7812 16.1719 34.125C16.6094 32.4375 17.1562 30.9688 17.8125 29.7188C18.4688 28.4688 19.1719 27.3594 19.9219 26.3906C20.6719 25.3906 21.375 24.3438 22.0312 23.25C22.6875 22.1562 23.2344 20.9219 23.6719 19.5469C24.1094 18.1406 24.3281 16.4219 24.3281 14.3906C24.3281 12.8281 24.1406 11.4688 23.7656 10.3125C23.4219 9.15625 22.9219 8.20312 22.2656 7.45312C21.6094 6.67188 20.8281 6.09375 19.9219 5.71875C19.0469 5.34375 18.0781 5.15625 17.0156 5.15625C15.2656 5.15625 13.8281 5.53125 12.7031 6.28125C11.5781 7.03125 11.0156 8 11.0156 9.1875C11.0156 9.8125 11.1562 10.375 11.4375 10.875C11.7188 11.3438 12.0312 11.7969 12.375 12.2344C12.75 12.6719 13.0781 13.1406 13.3594 13.6406C13.6406 14.1094 13.7812 14.6562 13.7812 15.2812C13.7812 16 13.625 16.6562 13.3125 17.25C13.0312 17.8125 12.625 18.2969 12.0938 18.7031C11.5625 19.1094 10.9375 19.4375 10.2188 19.6875C9.53125 19.9062 8.78125 20.0156 7.96875 20.0156C6.96875 20.0156 6.04688 19.8438 5.20312 19.5C4.35938 19.1562 3.60938 18.6875 2.95312 18.0938C2.32812 17.4688 1.82812 16.7344 1.45312 15.8906C1.10938 15.0469 0.9375 14.125 0.9375 13.125C0.9375 10.7812 1.48438 8.78125 2.57812 7.125C3.70312 5.46875 5.14062 4.125 6.89062 3.09375C8.67188 2.03125 10.625 1.26562 12.75 0.796875C14.9062 0.296875 17.0156 0.046875 19.0781 0.046875C21.7969 0.046875 24.3125 0.359375 26.625 0.984375C28.9688 1.60938 30.9844 2.51562 32.6719 3.70312C34.3594 4.89062 35.6719 6.34375 36.6094 8.0625C37.5781 9.75 38.0625 11.6719 38.0625 13.8281C38.0625 15.8281 37.6406 17.5625 36.7969 19.0312C35.9844 20.4688 34.9531 21.8125 33.7031 23.0625C32.4531 24.2812 31.0938 25.4688 29.625 26.625C28.1875 27.7812 26.8438 29.0625 25.5938 30.4688C24.3438 31.8438 23.2969 33.4219 22.4531 35.2031C21.6406 36.9844 21.2344 39.1094 21.2344 41.5781V43.5H15.6562ZM12.1406 52.125C12.1406 51.3438 12.2969 50.6094 12.6094 49.9219C12.9531 49.2031 13.4062 48.5781 13.9688 48.0469C14.5625 47.5156 15.25 47.1094 16.0312 46.8281C16.8125 46.5156 17.6406 46.3594 18.5156 46.3594C19.3906 46.3594 20.2031 46.5156 20.9531 46.8281C21.7344 47.1094 22.4062 47.5156 22.9688 48.0469C23.5625 48.5781 24.0156 49.2031 24.3281 49.9219C24.6719 50.6094 24.8438 51.3438 24.8438 52.125C24.8438 52.9375 24.6719 53.6875 24.3281 54.375C24.0156 55.0625 23.5625 55.6719 22.9688 56.2031C22.4062 56.7344 21.7344 57.1406 20.9531 57.4219C20.2031 57.7344 19.3906 57.8906 18.5156 57.8906C17.6406 57.8906 16.8125 57.7344 16.0312 57.4219C15.25 57.1406 14.5625 56.7344 13.9688 56.2031C13.4062 55.6719 12.9531 55.0625 12.6094 54.375C12.2969 53.6875 12.1406 52.9375 12.1406 52.125Z" fill="black"/>
</svg>
