<svg width="62" height="29" viewBox="0 0 62 29" fill="none" xmlns="http://www.w3.org/2000/svg">
<path fill-rule="evenodd" clip-rule="evenodd" d="M23.4885 0L22.9668 0.160599L24.9383 9.53279L24.2553 14.8829H21C18.7909 14.8829 17 16.6737 17 18.8829V19H9V24.1162H0L0.826666 28.8829H56.2133L62 15.8829C62 15.8829 52.9398 18.8055 44.5725 20.2686L43.287 17.2954C42.6538 15.831 41.211 14.8829 39.6155 14.8829H39.4894L37.9574 8.88287H36V6.38287C36 5.55445 35.3284 4.88287 34.5 4.88287C33.6716 4.88287 33 5.55445 33 6.38287V8.88287H25.3571L23.4885 0ZM37 10H31V15H38L37 10Z" fill="black"/>
</svg>
