<svg width="75" height="138" viewBox="0 0 75 138" fill="none" xmlns="http://www.w3.org/2000/svg">
<path fill-rule="evenodd" clip-rule="evenodd" d="M30.892 21.1612L31.3212 21L32.8583 29.9189H39.1452V27.4088C39.1452 26.577 39.6976 25.9027 40.379 25.9027C41.0605 25.9027 41.6129 26.577 41.6129 27.4088V29.9189H43.2231L44.4832 35.9432H44.587C45.8993 35.9432 47.0862 36.8952 47.6071 38.3656L48.6645 41.3508C55.5472 39.8818 63 36.9473 63 36.9473L58.24 50H12.68L12 45.214H19.4032V40.077H25.9839V39.9594C25.9839 37.7414 27.457 35.9432 29.2742 35.9432H31.952L32.5138 30.5715L30.892 21.1612ZM37.5 31.0406H42.4355L43.2581 36.0608H37.5V31.0406Z" fill="black"/>
<path fill-rule="evenodd" clip-rule="evenodd" d="M62.9299 72.0004C70.3518 64.418 75 53.5597 75 41.5C75 40.4259 74.9631 39.3614 74.8907 38.3078L75 38H74.8685C73.2626 16.7181 57.1455 0 37.5 0C17.8545 0 1.73736 16.7181 0.13148 38H0L0.109775 38.3008C0.0370359 39.3566 0 40.4235 0 41.5C0 53.8475 4.87273 64.9356 12.6062 72.5376L36.5 138H39.5L62.9299 72.0004ZM68 41.5C68 60.5538 54.5685 76 38 76C21.4315 76 8 60.5538 8 41.5C8 22.4462 21.4315 7 38 7C54.5685 7 68 22.4462 68 41.5Z" fill="black"/>
</svg>
