<svg width="34" height="32" viewBox="0 0 34 32" fill="none" xmlns="http://www.w3.org/2000/svg">
<path d="M7.55448 2.60844C0.21767 6.45557 -1.64688 16.4255 1.6034 23.5448L1.85597 25.0899C0.906216 25.2734 0 25.5 0 25.5V26H2L2.00473 26L2.0147 26.061C2.88358 26.1369 6.22015 26.3298 7.78326 25.9945C9.73878 25.575 11.5894 24.6667 12.9512 23.8632C13.7928 23.3666 14.261 22.9502 14.908 22.3746C15.3078 22.0189 15.776 21.6025 16.4428 21.0688L16.5044 21.0194L18.2638 28.7493L21 28L18.2638 20.5L16.5445 20.9874C18.223 19.6441 19.0882 18.9572 20.4233 18.1695C21.2649 17.6729 21.7731 17.4432 22.4754 17.1257C22.9095 16.9295 23.4177 16.6998 24.1246 16.3528C25.0034 15.9215 25.7955 15.624 26.4899 15.4081L34 14V13.5L30.515 13.0644L29.7448 9.09596C28.2435 3.71117 19.6338 -2.52375 7.55448 2.60844Z" fill="#070707"/>
<path d="M18.9884 28.708C18.1837 28.9047 17.6907 29.7165 17.8874 30.5212C18.084 31.326 18.8958 31.8189 19.7006 31.6222L21.1407 31.2703C21.9454 31.0736 22.4384 30.2618 22.2417 29.4571C22.0451 28.6524 21.2333 28.1594 20.4285 28.3561L18.9884 28.708Z" fill="#070707"/>
</svg>
