<svg width="75" height="138" viewBox="0 0 75 138" fill="none" xmlns="http://www.w3.org/2000/svg">
<path d="M19.9335 50.2493C16.0141 40.8242 18.2625 27.6254 27.1098 22.5323C41.6761 15.7379 52.0583 23.9922 53.8688 31.1209L54.7975 36.3746L59 36.9513V37.6132L49.9437 39.4774C49.1064 39.7632 48.1511 40.157 47.0914 40.728C46.239 41.1874 45.6261 41.4915 45.1027 41.7513C44.2558 42.1716 43.6429 42.4757 42.6281 43.1331C41.0181 44.1759 39.9748 45.0853 37.9507 46.8636L40.024 46.2184L43.3235 56.1474L40.024 57.1394L37.9024 46.9061L37.8281 46.9714C37.024 47.6779 36.4594 48.2292 35.9773 48.7001C35.1971 49.4621 34.6325 50.0134 33.6176 50.6708C31.9755 51.7345 29.7438 52.937 27.3857 53.4923C25.5008 53.9362 21.4773 53.6808 20.4295 53.5804L20.4175 53.4996L20.4118 53.4996H18V52.8377C18 52.8377 19.0928 52.5378 20.2381 52.2948L19.9335 50.2493Z" fill="#070707"/>
<path d="M39.5701 59.4851C39.3329 58.4198 39.9273 57.3451 40.8978 57.0847L42.6344 56.6188C43.6048 56.3584 44.5838 57.011 44.8209 58.0764C45.0581 59.1418 44.4636 60.2165 43.4932 60.4769L41.7566 60.9428C40.7861 61.2031 39.8072 60.5505 39.5701 59.4851Z" fill="#070707"/>
<path fill-rule="evenodd" clip-rule="evenodd" d="M62.9299 72.0004C70.3518 64.418 75 53.5597 75 41.5C75 40.4259 74.9631 39.3614 74.8907 38.3078L75 38H74.8685C73.2626 16.7181 57.1455 0 37.5 0C17.8545 0 1.73736 16.7181 0.13148 38H0L0.109775 38.3008C0.0370359 39.3566 0 40.4235 0 41.5C0 53.8475 4.87273 64.9356 12.6062 72.5376L36.5 138H39.5L62.9299 72.0004ZM68 41.5C68 60.5538 54.5685 76 38 76C21.4315 76 8 60.5538 8 41.5C8 22.4462 21.4315 7 38 7C54.5685 7 68 22.4462 68 41.5Z" fill="#070707"/>
</svg>
