<svg width="73" height="28" viewBox="0 0 73 28" fill="none" xmlns="http://www.w3.org/2000/svg">
<mask id="path-1-inside-1_110_41" fill="white">
<path fill-rule="evenodd" clip-rule="evenodd" d="M8.15682 10.6684C9.38869 4.65254 17.3781 0.0272405 27.0362 0.0554555C33.7317 0.0750153 39.6121 2.32627 42.9885 5.71222L42.9884 5.71217L70.4633 0.716734C71.2784 0.56854 72.0593 1.10915 72.2075 1.92421C72.3557 2.73927 71.8151 3.52015 71 3.66834L44.998 8.39598C45.3826 9.12526 45.6639 9.88515 45.8307 10.6684H46L56.125 13.6684H68.6667C69.9553 13.6684 71 14.713 71 16.0017C71 22.445 65.7767 27.6684 59.3333 27.6684H11.6667C5.22335 27.6684 0 22.445 0 16.0017C0 14.713 1.04467 13.6684 2.33333 13.6684H6.875L8 10.6684H8.15682ZM10.7741 26C8.02772 26 5.71229 24.3085 5 22H16.5483C15.836 24.3085 13.5206 26 10.7741 26ZM24.5 26C22.3596 26 20.5551 24.3085 20 22H29C28.4449 24.3085 26.6404 26 24.5 26ZM31 22C31.5551 24.3085 33.3596 26 35.5 26C37.6404 26 39.4449 24.3085 40 22H31ZM46.5 26C44.3596 26 42.5551 24.3085 42 22H51C50.4449 24.3085 48.6404 26 46.5 26ZM54 22C54.7123 24.3085 57.0277 26 59.7741 26C62.5206 26 64.836 24.3085 65.5483 22H54Z"/>
</mask>
<path fill-rule="evenodd" clip-rule="evenodd" d="M8.15682 10.6684C9.38869 4.65254 17.3781 0.0272405 27.0362 0.0554555C33.7317 0.0750153 39.6121 2.32627 42.9885 5.71222L42.9884 5.71217L70.4633 0.716734C71.2784 0.56854 72.0593 1.10915 72.2075 1.92421C72.3557 2.73927 71.8151 3.52015 71 3.66834L44.998 8.39598C45.3826 9.12526 45.6639 9.88515 45.8307 10.6684H46L56.125 13.6684H68.6667C69.9553 13.6684 71 14.713 71 16.0017C71 22.445 65.7767 27.6684 59.3333 27.6684H11.6667C5.22335 27.6684 0 22.445 0 16.0017C0 14.713 1.04467 13.6684 2.33333 13.6684H6.875L8 10.6684H8.15682ZM10.7741 26C8.02772 26 5.71229 24.3085 5 22H16.5483C15.836 24.3085 13.5206 26 10.7741 26ZM24.5 26C22.3596 26 20.5551 24.3085 20 22H29C28.4449 24.3085 26.6404 26 24.5 26ZM31 22C31.5551 24.3085 33.3596 26 35.5 26C37.6404 26 39.4449 24.3085 40 22H31ZM46.5 26C44.3596 26 42.5551 24.3085 42 22H51C50.4449 24.3085 48.6404 26 46.5 26ZM54 22C54.7123 24.3085 57.0277 26 59.7741 26C62.5206 26 64.836 24.3085 65.5483 22H54Z" fill="#010101"/>
<path d="M27.0362 0.0554555L27.0392 -0.94454L27.0362 0.0554555ZM8.15682 10.6684V11.6684H8.97279L9.13649 10.869L8.15682 10.6684ZM42.9885 5.71222L42.2804 6.41832L43.8499 5.2044L42.9885 5.71222ZM42.9884 5.71217L42.8096 4.7283L41.3989 4.98479L42.127 6.21998L42.9884 5.71217ZM70.4633 0.716734L70.6422 1.7006L70.6422 1.7006L70.4633 0.716734ZM71 3.66834L70.8211 2.68447L70.8211 2.68447L71 3.66834ZM44.998 8.39598L44.8191 7.41211L43.4773 7.65608L44.1135 8.86243L44.998 8.39598ZM45.8307 10.6684L44.8526 10.8766L45.0212 11.6684H45.8307V10.6684ZM46 10.6684L46.2841 9.70955L46.145 9.66835H46V10.6684ZM56.125 13.6684L55.8409 14.6272L55.98 14.6684H56.125V13.6684ZM6.875 13.6684V14.6684H7.568L7.81133 14.0195L6.875 13.6684ZM8 10.6684V9.66835H7.307L7.06367 10.3172L8 10.6684ZM5 22V21H3.64493L4.04445 22.2948L5 22ZM16.5483 22L17.5038 22.2948L17.9034 21H16.5483V22ZM20 22V21H18.731L19.0277 22.2338L20 22ZM29 22L29.9723 22.2338L30.269 21H29V22ZM31 22V21H29.731L30.0277 22.2338L31 22ZM40 22L40.9723 22.2338L41.269 21H40V22ZM42 22V21H40.731L41.0277 22.2338L42 22ZM51 22L51.9723 22.2338L52.269 21H51V22ZM54 22V21H52.6449L53.0445 22.2948L54 22ZM65.5483 22L66.5038 22.2948L66.9034 21H65.5483V22ZM27.0392 -0.94454C22.0575 -0.959094 17.4708 0.225031 13.9433 2.22555C10.429 4.21864 7.86986 7.08487 7.17715 10.4677L9.13649 10.869C9.67564 8.23602 11.7271 5.7817 14.93 3.96524C18.1198 2.15621 22.3568 1.04179 27.0333 1.05545L27.0392 -0.94454ZM43.6966 5.00611C40.0879 1.38714 33.9271 -0.924418 27.0392 -0.94454L27.0333 1.05545C33.5363 1.07445 39.1364 3.2654 42.2804 6.41832L43.6966 5.00611ZM42.127 6.21998L42.127 6.22003L43.8499 5.2044L43.8499 5.20436L42.127 6.21998ZM70.2845 -0.267136L42.8096 4.7283L43.1673 6.69604L70.6422 1.7006L70.2845 -0.267136ZM73.1914 1.74533C72.9444 0.386884 71.6429 -0.514125 70.2845 -0.267136L70.6422 1.7006C70.9139 1.65121 71.1742 1.83141 71.2236 2.1031L73.1914 1.74533ZM71.1789 4.65221C72.5373 4.40522 73.4383 3.10376 73.1914 1.74533L71.2236 2.1031C71.273 2.37479 71.0928 2.63508 70.8211 2.68447L71.1789 4.65221ZM45.1769 9.37985L71.1789 4.65221L70.8211 2.68447L44.8191 7.41211L45.1769 9.37985ZM46.8087 10.4601C46.6215 9.58107 46.3071 8.73469 45.8825 7.92953L44.1135 8.86243C44.458 9.51583 44.7062 10.1892 44.8526 10.8766L46.8087 10.4601ZM46 9.66835H45.8307V11.6684H46V9.66835ZM56.4091 12.7096L46.2841 9.70955L45.7159 11.6272L55.8409 14.6272L56.4091 12.7096ZM68.6667 12.6684H56.125V14.6684H68.6667V12.6684ZM72 16.0017C72 14.1607 70.5076 12.6684 68.6667 12.6684V14.6684C69.403 14.6684 70 15.2653 70 16.0017H72ZM59.3333 28.6684C66.3289 28.6684 72 22.9973 72 16.0017H70C70 21.8927 65.2244 26.6684 59.3333 26.6684V28.6684ZM11.6667 28.6684H59.3333V26.6684H11.6667V28.6684ZM-1 16.0017C-1 22.9973 4.67106 28.6684 11.6667 28.6684V26.6684C5.77563 26.6684 1 21.8927 1 16.0017H-1ZM2.33333 12.6684C0.492384 12.6684 -1 14.1607 -1 16.0017H1C1 15.2653 1.59695 14.6684 2.33333 14.6684V12.6684ZM6.875 12.6684H2.33333V14.6684H6.875V12.6684ZM7.06367 10.3172L5.93867 13.3172L7.81133 14.0195L8.93633 11.0195L7.06367 10.3172ZM8.15682 9.66835H8V11.6684H8.15682V9.66835ZM4.04445 22.2948C4.89698 25.0579 7.62711 27 10.7741 27V25C8.42834 25 6.52759 23.5591 5.95555 21.7052L4.04445 22.2948ZM16.5483 21H5V23H16.5483V21ZM10.7741 27C13.9212 27 16.6513 25.0579 17.5038 22.2948L15.5927 21.7052C15.0207 23.5591 13.12 25 10.7741 25V27ZM19.0277 22.2338C19.6632 24.8766 21.7887 27 24.5 27V25C22.9306 25 21.447 23.7404 20.9723 21.7662L19.0277 22.2338ZM29 21H20V23H29V21ZM24.5 27C27.2113 27 29.3368 24.8766 29.9723 22.2338L28.0277 21.7662C27.553 23.7404 26.0694 25 24.5 25V27ZM35.5 25C33.9306 25 32.447 23.7404 31.9723 21.7662L30.0277 22.2338C30.6632 24.8766 32.7887 27 35.5 27V25ZM39.0277 21.7662C38.553 23.7404 37.0694 25 35.5 25V27C38.2113 27 40.3368 24.8766 40.9723 22.2338L39.0277 21.7662ZM31 23H40V21H31V23ZM41.0277 22.2338C41.6632 24.8766 43.7887 27 46.5 27V25C44.9306 25 43.447 23.7404 42.9723 21.7662L41.0277 22.2338ZM51 21H42V23H51V21ZM46.5 27C49.2113 27 51.3368 24.8766 51.9723 22.2338L50.0277 21.7662C49.553 23.7404 48.0694 25 46.5 25V27ZM59.7741 25C57.4283 25 55.5276 23.5591 54.9555 21.7052L53.0445 22.2948C53.897 25.0579 56.6271 27 59.7741 27V25ZM64.5927 21.7052C64.0207 23.5591 62.12 25 59.7741 25V27C62.9212 27 65.6513 25.0579 66.5038 22.2948L64.5927 21.7052ZM54 23H65.5483V21H54V23Z" fill="black" mask="url(#path-1-inside-1_110_41)"/>
</svg>
