<svg width="75" height="138" viewBox="0 0 75 138" fill="none" xmlns="http://www.w3.org/2000/svg">
<path d="M62.5725 71.6506L62.4955 71.7293L62.4587 71.8331L39.1469 137.5H36.8498L13.0759 72.3662L13.0372 72.2602L12.9567 72.1811C5.32076 64.6749 0.5 53.7161 0.5 41.5C0.5 40.435 0.536641 39.3795 0.608592 38.3351L0.615894 38.2291L0.615661 38.2285L0.630063 38.0376C2.2197 16.9709 18.1594 0.5 37.5 0.5C56.8406 0.5 72.7803 16.9709 74.3699 38.0376L74.385 38.2377L74.3848 38.2385L74.3919 38.3421C74.4635 39.3843 74.5 40.4374 74.5 41.5C74.5 53.4313 69.9014 64.1634 62.5725 71.6506ZM19.8646 38.7292L20.4894 36.113H20.6336L20.6904 35.6777C21.4434 29.9035 26.3249 25.4731 32.2154 25.5001C36.2997 25.5189 39.8906 27.6747 41.9546 30.9249L42.1548 31.2402L42.5139 31.1376L60.011 26.1422C60.0433 26.133 60.1119 26.1245 60.2203 26.2424C60.3345 26.3665 60.4498 26.5987 60.4878 26.9264C60.5254 27.2514 60.4735 27.5603 60.3725 27.7893C60.2666 28.0296 60.1414 28.1142 60.0782 28.1322L43.5191 32.8599L43.0158 33.0036L43.1824 33.4998C43.4174 34.1995 43.5893 34.9286 43.6912 35.6802L43.7499 36.113H44.1839L50.5316 39.0664L50.6319 39.113H50.7425H58.7295C58.9098 39.113 59.1443 39.2287 59.3585 39.565C59.5689 39.8955 59.7155 40.3825 59.7155 40.9464C59.7155 44.0875 58.9037 46.9079 57.6176 48.9274C56.3278 50.9527 54.6073 52.113 52.7857 52.113H22.4298C20.6082 52.113 18.8877 50.9527 17.5979 48.9274C16.3118 46.9079 15.5 44.0875 15.5 40.9464C15.5 40.3825 15.6465 39.8955 15.857 39.565C16.0712 39.2287 16.3057 39.113 16.486 39.113H19.3783H19.7729L19.8646 38.7292ZM18.1842 46.4447H17.5764L17.6936 47.0411C18.1667 49.4491 19.7584 51.4447 21.8614 51.4447C23.9643 51.4447 25.556 49.4491 26.0292 47.0411L26.1464 46.4447H25.5386H18.1842ZM27.7368 46.4447H27.1544L27.2425 47.0204C27.4278 48.2304 27.8253 49.3087 28.3825 50.0986C28.9358 50.8829 29.6969 51.4447 30.6025 51.4447C31.5081 51.4447 32.2692 50.8829 32.8226 50.0986C33.3797 49.3087 33.7772 48.2304 33.9625 47.0204L34.0507 46.4447H33.4683H27.7368ZM34.742 46.4447H34.1596L34.2477 47.0204C34.433 48.2304 34.8305 49.3087 35.3877 50.0986C35.941 50.8829 36.7021 51.4447 37.6077 51.4447C38.5133 51.4447 39.2745 50.8829 39.8278 50.0986C40.385 49.3087 40.7824 48.2304 40.9677 47.0204L41.0559 46.4447H40.4735H34.742ZM41.7472 46.4447H41.1648L41.2529 47.0204C41.4382 48.2304 41.8357 49.3087 42.3929 50.0986C42.9462 50.8829 43.7073 51.4447 44.6129 51.4447C45.5186 51.4447 46.2797 50.8829 46.833 50.0986C47.3902 49.3087 47.7876 48.2304 47.9729 47.0204L48.0611 46.4447H47.4787H41.7472ZM49.3892 46.4447H48.7814L48.8986 47.0411C49.3718 49.4491 50.9635 51.4447 53.0664 51.4447C55.1694 51.4447 56.7611 49.4491 57.2342 47.0411L57.3514 46.4447H56.7436H49.3892ZM38 76.5C54.908 76.5 68.5 60.7621 68.5 41.5C68.5 22.2379 54.908 6.5 38 6.5C21.092 6.5 7.5 22.2379 7.5 41.5C7.5 60.7621 21.092 76.5 38 76.5Z" fill="#010101" stroke="black"/>
</svg>
