<svg width="75" height="138" viewBox="0 0 75 138" fill="none" xmlns="http://www.w3.org/2000/svg">
<path d="M33.5156 52.2656C33.5156 53.2656 33.5625 54.3438 33.6562 55.5H39.2344V53.5781C39.2344 51.1094 39.6406 48.9844 40.4531 47.2031C41.2969 45.4219 42.3438 43.8438 43.5938 42.4688C44.8438 41.0625 46.1875 39.7812 47.625 38.625C49.0938 37.4688 50.4531 36.2812 51.7031 35.0625C52.9531 33.8125 53.9844 32.4688 54.7969 31.0312C55.6406 29.5625 56.0625 27.8281 56.0625 25.8281C56.0625 23.6719 55.5781 21.75 54.6094 20.0625C53.6719 18.3438 52.3594 16.8906 50.6719 15.7031C48.9844 14.5156 46.9688 13.6094 44.625 12.9844C42.3125 12.3594 39.7969 12.0469 37.0781 12.0469C35.0156 12.0469 32.9062 12.2969 30.75 12.7969C28.625 13.2656 26.6719 14.0312 24.8906 15.0938C23.1406 16.125 21.7031 17.4688 20.5781 19.125C19.4844 20.7812 18.9375 22.7812 18.9375 25.125C18.9375 26.125 19.1094 27.0469 19.4531 27.8906C19.8281 28.7344 20.3281 29.4688 20.9531 30.0938C21.6094 30.6875 22.3594 31.1562 23.2031 31.5C24.0469 31.8438 24.9688 32.0156 25.9688 32.0156C26.7812 32.0156 27.5312 31.9062 28.2188 31.6875C28.9375 31.4375 29.5625 31.1094 30.0938 30.7031C30.625 30.2969 31.0312 29.8125 31.3125 29.25C31.625 28.6562 31.7812 28 31.7812 27.2812C31.7812 26.6562 31.6406 26.1094 31.3594 25.6406C31.0781 25.1406 30.75 24.6719 30.375 24.2344C30.0312 23.7969 29.7188 23.3438 29.4375 22.875C29.1562 22.375 29.0156 21.8125 29.0156 21.1875C29.0156 20 29.5781 19.0312 30.7031 18.2812C31.8281 17.5312 33.2656 17.1562 35.0156 17.1562C36.0781 17.1562 37.0469 17.3438 37.9219 17.7188C38.8281 18.0938 39.6094 18.6719 40.2656 19.4531C40.9219 20.2031 41.4219 21.1562 41.7656 22.3125C42.1406 23.4688 42.3281 24.8281 42.3281 26.3906C42.3281 28.4219 42.1094 30.1406 41.6719 31.5469C41.2344 32.9219 40.6875 34.1562 40.0312 35.25C39.375 36.3438 38.6719 37.3906 37.9219 38.3906C37.1719 39.3594 36.4688 40.4688 35.8125 41.7188C35.1562 42.9688 34.6094 44.4375 34.1719 46.125C33.7344 47.7812 33.5156 49.8281 33.5156 52.2656Z" fill="black"/>
<path d="M30.6094 61.9219C30.2969 62.6094 30.1406 63.3438 30.1406 64.125C30.1406 64.9375 30.2969 65.6875 30.6094 66.375C30.9531 67.0625 31.4062 67.6719 31.9688 68.2031C32.5625 68.7344 33.25 69.1406 34.0312 69.4219C34.8125 69.7344 35.6406 69.8906 36.5156 69.8906C37.3906 69.8906 38.2031 69.7344 38.9531 69.4219C39.7344 69.1406 40.4062 68.7344 40.9688 68.2031C41.5625 67.6719 42.0156 67.0625 42.3281 66.375C42.6719 65.6875 42.8438 64.9375 42.8438 64.125C42.8438 63.3438 42.6719 62.6094 42.3281 61.9219C42.0156 61.2031 41.5625 60.5781 40.9688 60.0469C40.4062 59.5156 39.7344 59.1094 38.9531 58.8281C38.2031 58.5156 37.3906 58.3594 36.5156 58.3594C35.6406 58.3594 34.8125 58.5156 34.0312 58.8281C33.25 59.1094 32.5625 59.5156 31.9688 60.0469C31.4062 60.5781 30.9531 61.2031 30.6094 61.9219Z" fill="black"/>
<path fill-rule="evenodd" clip-rule="evenodd" d="M62.9299 72.0004C70.3518 64.418 75 53.5597 75 41.5C75 40.4259 74.9631 39.3614 74.8907 38.3078L75 38H74.8685C73.2626 16.7181 57.1455 0 37.5 0C17.8545 0 1.73736 16.7181 0.13148 38H0L0.109775 38.3008C0.0370359 39.3566 0 40.4235 0 41.5C0 53.8475 4.87273 64.9356 12.6062 72.5376L36.5 138H39.5L62.9299 72.0004ZM68 41.5C68 60.5538 54.5685 76 38 76C21.4315 76 8 60.5538 8 41.5C8 22.4462 21.4315 7 38 7C54.5685 7 68 22.4462 68 41.5Z" fill="black"/>
</svg>
